<svg width="48" height="51" viewBox="0 0 48 51" fill="none" xmlns="http://www.w3.org/2000/svg">
<path d="M22.7469 0.0927248C18.7344 0.141162 10.1078 0.800537 5.28283 5.2271C1.69376 8.78335 0.440639 14.0412 0.293764 20.5427C0.171889 27.0208 0.0250141 39.1865 11.7516 42.499V47.5443C11.7516 47.5443 11.6781 49.563 13.0125 49.9771C14.6563 50.4974 15.5922 48.9443 17.1547 47.2755L20.0688 43.9802C28.0922 44.6474 34.2375 43.1099 34.9453 42.8818C36.5735 42.3615 45.7438 41.1896 47.2422 29.0224C48.7797 16.4568 46.4938 8.5396 42.3672 4.95835H42.3422C41.0969 3.81147 36.0922 0.1646 24.911 0.123975C24.911 0.123975 24.0813 0.0677248 22.7469 0.0911623V0.0927248ZM22.8844 3.62554C24.0235 3.61772 24.7156 3.66616 24.7156 3.66616C34.1797 3.69116 38.6969 6.5396 39.7625 7.49897C43.2375 10.4771 45.0281 17.6146 43.7172 28.1052C42.4719 38.2771 35.0344 38.9208 33.6578 39.3599C33.0719 39.5474 27.6594 40.8818 20.8406 40.4427C20.8406 40.4427 15.7625 46.5708 14.175 48.149C13.9235 48.4255 13.6297 48.5068 13.4422 48.4662C13.1735 48.4005 13.0922 48.0677 13.1078 47.6115L13.1563 39.238C3.21095 36.488 3.79689 26.1115 3.90314 20.6912C4.02501 15.2708 5.0422 10.8365 8.07033 7.83335C12.1469 4.14741 19.4719 3.65054 22.8813 3.62554H22.8844ZM23.6344 9.04429C23.2922 9.03647 23.0078 9.32085 23.0078 9.66304C23.0078 10.013 23.2922 10.2896 23.6344 10.2896C26.7672 10.2333 29.7875 11.4208 32.0328 13.6021C34.3031 15.8068 35.4094 18.7693 35.4516 22.6427C35.4516 22.9849 35.7281 23.2693 36.0781 23.2693V23.2443C36.4203 23.2443 36.7047 22.9677 36.7047 22.6255C36.8594 18.9396 35.4922 15.3583 32.9281 12.7052C30.4547 10.288 27.3203 9.04272 23.6344 9.04272V9.04429ZM15.3985 10.4771C14.9594 10.4115 14.5031 10.5021 14.1203 10.7287H14.0875C13.2406 11.2255 12.4516 11.8521 11.7031 12.6896C11.1328 13.349 10.8235 14.0162 10.7422 14.6583C10.6938 15.0412 10.7266 15.424 10.8406 15.7896L10.8813 15.8146C11.5235 17.7021 12.3625 19.5177 13.3875 21.2271C14.7063 23.6271 16.3328 25.849 18.2219 27.8349L18.2781 27.9162L18.3672 27.9818L18.4235 28.0474L18.4891 28.1037C20.4828 30.0005 22.7047 31.6271 25.1141 32.9615C27.8641 34.4583 29.5328 35.1662 30.5344 35.4599V35.4755C30.8281 35.5646 31.0953 35.6052 31.3641 35.6052C32.2188 35.5396 33.025 35.199 33.6594 34.6208C34.4735 33.888 35.1156 33.0833 35.5969 32.2287V32.213C36.0766 31.3099 35.9141 30.4552 35.2219 29.8771C33.8391 28.6646 32.3328 27.5896 30.7453 26.663C29.6797 26.0849 28.5969 26.4349 28.1578 27.0208L27.2219 28.2005C26.7422 28.7865 25.8703 28.7052 25.8703 28.7052L25.8453 28.7208C19.3438 27.0599 17.6094 20.4771 17.6094 20.4771C17.6094 20.4771 17.5281 19.5818 18.1297 19.1255L19.3016 18.1818C19.8625 17.7255 20.2531 16.6443 19.6516 15.5771C18.7313 13.9818 17.6578 12.4849 16.4453 11.1005C16.1844 10.7755 15.811 10.5552 15.3953 10.474L15.3985 10.4771ZM24.7156 12.3333C23.886 12.3333 23.886 13.5865 24.7235 13.5865C26.8063 13.6193 28.7922 14.4818 30.2406 15.9787C31.5594 17.4349 32.2422 19.3724 32.1125 21.3333C32.1203 21.6755 32.3969 21.9521 32.7391 21.9521L32.7641 21.9849C33.1063 21.9849 33.3906 21.7005 33.3906 21.3583C33.4469 18.8755 32.675 16.7927 31.161 15.124C29.6391 13.4552 27.5156 12.5193 24.8047 12.3333C24.7719 12.3333 24.7485 12.3333 24.7156 12.3333ZM25.7422 15.7021C24.8875 15.6771 24.8547 16.9552 25.7016 16.9802C27.761 17.0865 28.761 18.1271 28.8922 20.2677C28.9 20.6099 29.1766 20.8787 29.511 20.8787H29.536C29.886 20.863 30.1625 20.5615 30.1375 20.2115C29.9906 17.4208 28.4688 15.849 25.7672 15.7037C25.7594 15.7037 25.7516 15.7037 25.7422 15.7037V15.7021Z" fill="#DB10C7"/>
</svg>
